<?xml version="1.0" encoding="UTF-8"?><svg id="Layer_1" xmlns="http://www.w3.org/2000/svg" viewBox="0 0 1770.63 700"><defs><style>.cls-1{fill:none;}.cls-2{fill:#fff;}</style></defs><rect class="cls-1" x="62.14" width="585" height="700"/><path class="cls-2" d="M794.03,385h-72.41v-45.67h72.41c11.19,0,20.3-1.82,27.32-5.46,7.03-3.77,12.17-8.98,15.42-15.61,3.25-6.64,4.88-14.12,4.88-22.44s-1.63-16.33-4.88-23.62-8.39-13.14-15.42-17.56c-7.02-4.42-16.13-6.63-27.32-6.63h-52.11v238.29h-58.55V202.13h110.66c22.25,0,41.31,4.03,57.18,12.1,16,7.94,28.23,18.93,36.69,32.98,8.46,14.05,12.69,30.12,12.69,48.21s-4.23,34.22-12.69,47.62c-8.46,13.4-20.69,23.74-36.69,31.03-15.87,7.29-34.93,10.93-57.18,10.93ZM1003.25,202.13v284.15h-58.35V202.13h58.35ZM1289.35,202.13v284.15h-58.55l-114.17-190.48v190.48h-58.55V202.13h58.55l114.36,190.67v-190.67h58.35ZM1555.36,250.72l-77.29,235.56h-62.26l105.59-284.15h39.62l-5.66,48.6ZM1619.56,486.28l-77.47-235.56-6.25-48.6h40l106.17,284.15h-62.45ZM1616.05,380.51v45.86h-150.07v-45.86h150.07ZM1770.63,202.13v284.15h-58.35V202.13h58.35Z"/><rect class="cls-1" y="9.99" width="666.15" height="666.15"/></svg>